<?xml version="1.0" standalone="no"?>
<!DOCTYPE svg PUBLIC "-//W3C//DTD SVG 20010904//EN"
 "http://www.w3.org/TR/2001/REC-SVG-20010904/DTD/svg10.dtd">
<svg version="1.0" xmlns="http://www.w3.org/2000/svg"
 width="1231.000000pt" height="1231.000000pt" viewBox="0 0 1231.000000 1231.000000"
 preserveAspectRatio="xMidYMid meet">
<metadata>
Created by potrace 1.11, written by Peter Selinger 2001-2013
</metadata>
<g transform="translate(0.000000,1231.000000) scale(0.100000,-0.100000)"
fill="#000000" stroke="none">
<path d="M5789 12306 c-2 -2 -49 -7 -104 -10 -56 -4 -112 -8 -125 -11 -14 -2
-56 -6 -93 -10 -37 -3 -76 -8 -85 -10 -9 -1 -42 -6 -72 -9 -30 -4 -66 -8 -80
-11 -14 -2 -43 -6 -65 -10 -22 -3 -47 -7 -55 -10 -8 -2 -33 -6 -55 -10 -61 -8
-266 -53 -399 -86 -446 -111 -866 -268 -1271 -474 -184 -93 -157 -78 -350
-192 -901 -527 -1685 -1314 -2201 -2208 -109 -189 -110 -191 -198 -370 -165
-335 -267 -587 -370 -920 -51 -165 -133 -489 -151 -600 -3 -16 -12 -64 -20
-105 -7 -41 -17 -95 -21 -120 -3 -25 -8 -52 -9 -60 -5 -26 -17 -125 -30 -235
-3 -27 -8 -66 -10 -85 -20 -169 -28 -872 -13 -1060 9 -111 18 -201 23 -235 3
-16 7 -55 11 -85 3 -30 12 -93 20 -140 7 -47 16 -101 18 -120 16 -123 106
-511 161 -690 14 -47 27 -89 29 -95 89 -315 292 -791 491 -1151 154 -278 397
-642 566 -849 354 -432 722 -793 1094 -1070 44 -33 85 -63 90 -68 40 -34 371
-253 490 -324 293 -175 629 -339 935 -456 290 -112 547 -189 905 -272 54 -12
233 -46 325 -60 19 -3 46 -7 60 -10 14 -2 45 -7 70 -10 25 -3 56 -8 70 -10 14
-2 50 -6 80 -9 30 -3 80 -8 110 -12 138 -14 386 -26 574 -26 170 -1 477 10
506 17 8 2 51 6 95 10 44 3 91 8 105 10 14 2 50 6 81 10 31 3 66 7 76 9 11 3
44 7 74 11 30 4 56 8 59 10 3 2 28 6 55 9 28 4 57 9 65 11 8 2 31 7 50 10 210
35 549 124 810 212 1172 397 2200 1137 2946 2123 95 125 84 111 209 296 188
280 259 404 411 714 106 217 97 198 155 335 72 172 178 465 204 565 2 8 20 71
40 140 20 69 38 136 41 150 2 14 7 31 9 38 4 11 32 137 65 292 15 69 58 338
65 405 3 33 8 71 10 85 38 245 48 814 20 1165 -9 115 -15 185 -19 216 -3 19
-8 57 -11 84 -4 28 -9 63 -11 78 -8 64 -15 113 -19 127 -2 8 -7 35 -10 60 -4
25 -10 63 -15 85 -5 22 -12 56 -15 75 -55 323 -228 880 -377 1220 -11 25 -24
54 -28 65 -18 44 -202 414 -233 470 -19 33 -47 83 -62 110 -91 161 -289 460
-411 622 -97 127 -128 167 -134 173 -3 3 -25 30 -50 60 -187 231 -497 545
-744 755 -32 28 -66 57 -75 65 -62 58 -316 247 -487 363 -460 313 -1002 577
-1539 752 -243 80 -635 177 -840 208 -16 3 -73 12 -125 20 -52 9 -120 18 -150
21 -30 4 -68 8 -85 10 -16 3 -64 7 -105 11 -41 4 -91 9 -110 12 -42 5 -836 14
-841 9z m736 -689 c28 -3 85 -9 128 -12 43 -4 86 -8 95 -10 9 -1 48 -6 87 -10
38 -4 72 -8 75 -10 3 -1 30 -6 60 -9 66 -8 75 -9 265 -47 83 -16 164 -34 180
-39 17 -5 44 -12 60 -15 17 -3 71 -16 120 -31 50 -14 97 -27 105 -29 8 -2 83
-26 165 -53 736 -243 1437 -658 2003 -1187 430 -402 756 -817 1067 -1360 50
-86 215 -423 215 -437 0 -8 4 -18 9 -23 14 -15 112 -263 164 -415 113 -337
167 -550 222 -887 27 -167 30 -186 40 -288 4 -38 9 -81 11 -95 9 -76 18 -311
19 -495 0 -244 -9 -415 -31 -610 -3 -33 -8 -71 -9 -85 -1 -14 -5 -45 -9 -70
-4 -25 -10 -58 -12 -75 -3 -16 -9 -55 -14 -85 -5 -30 -12 -69 -15 -87 -10 -64
-57 -271 -81 -363 -198 -753 -532 -1420 -1023 -2040 -42 -52 -78 -97 -81 -100
-3 -3 -32 -36 -65 -75 -134 -156 -385 -409 -516 -520 -231 -196 -366 -300
-569 -437 -85 -58 -159 -107 -165 -109 -5 -2 -53 -29 -105 -61 -285 -169 -598
-317 -920 -433 -130 -47 -350 -117 -405 -130 -11 -2 -54 -13 -95 -24 -41 -11
-86 -22 -100 -25 -14 -3 -77 -16 -140 -30 -63 -13 -133 -27 -155 -30 -23 -4
-52 -9 -65 -11 -14 -3 -42 -7 -64 -10 -21 -3 -50 -7 -65 -9 -14 -3 -44 -7 -66
-10 -230 -29 -419 -40 -690 -40 -263 0 -438 8 -600 29 -22 3 -62 7 -90 10 -49
5 -111 14 -150 21 -23 4 -91 15 -120 19 -151 21 -681 155 -770 195 -11 5 -40
16 -65 24 -225 72 -606 242 -850 378 -310 173 -619 387 -888 613 -172 145
-377 346 -568 555 -59 65 -223 266 -269 330 -21 30 -42 57 -45 60 -3 3 -25 34
-49 70 -25 36 -48 67 -51 70 -11 9 -176 273 -240 385 -169 293 -367 739 -453
1021 -48 155 -77 255 -87 295 -6 24 -12 51 -14 59 -8 29 -28 115 -32 139 -3
12 -11 51 -19 85 -16 71 -23 108 -30 156 -3 19 -7 46 -10 60 -3 14 -10 59 -16
100 -5 41 -12 86 -14 99 -2 13 -7 58 -10 100 -4 42 -8 78 -10 82 -24 37 -24
919 0 1009 2 8 7 51 10 95 4 44 8 82 10 85 2 3 6 37 9 75 4 39 9 77 11 85 2 8
7 31 10 50 5 34 19 111 31 175 30 165 105 449 174 654 312 935 859 1755 1609
2410 76 67 302 248 347 279 11 7 71 49 134 93 603 422 1362 739 2087 874 63
11 140 24 178 30 22 3 51 7 65 10 14 2 48 7 75 10 58 6 135 14 185 20 19 2 87
7 150 10 63 4 116 8 118 10 5 4 566 -3 617 -8z"/>
<path d="M3930 6120 l0 -2150 33 -1 c166 -4 679 0 685 5 4 4 7 973 7 2152 l0
2144 -362 0 -363 0 0 -2150z"/>
<path d="M5850 6118 l0 -2153 347 2 c192 1 355 2 363 2 13 1 15 104 14 874 0
479 2 878 4 885 3 9 203 12 953 12 752 0 949 3 950 13 1 16 1 640 0 650 -1 4
-430 7 -953 7 l-953 0 0 590 c0 520 2 590 15 591 8 0 489 1 1068 1 l1052 1 1
41 c0 23 1 174 2 336 l2 295 -1432 3 -1433 2 0 -2152z"/>
</g>
</svg>
